<svg xmlns="http://www.w3.org/2000/svg" version="1.1" xmlns:xlink="http://www.w3.org/1999/xlink" width="512" height="512" x="0" y="0" viewBox="0 0 512 512" style="enable-background:new 0 0 512 512" xml:space="preserve"><g><path d="m504.431 107.292.048-.156-277.333-85.334-.048.156c-.997-.309-1.999-.625-3.098-.625H117.333c-.285 0-.523.139-.803.161-.464.035-.863.172-1.319.267a10.328 10.328 0 0 0-3.768 1.579c-.24.16-.548.143-.776.326L4 109l.103.129C1.661 111.083 0 113.96 0 117.333V160a10.66 10.66 0 0 0 10.667 10.667h96V390.25l-18.208 18.208c-2 2-3.125 4.708-3.125 7.542v64a10.66 10.66 0 0 0 10.667 10.667h149.333A10.66 10.66 0 0 0 256.001 480v-64a10.66 10.66 0 0 0-3.125-7.542l-18.208-18.208V170.667H384v42.667a10.671 10.671 0 0 0-8.542 17.063l30.302 40.402c-.147.707-.427 1.367-.427 2.119 0 6.875-2.688 13.344-7.542 18.208-8.895 8.895-13.791 20.718-13.791 33.291v6.25c0 17.646 14.354 32 32 32s32-14.354 32-32A10.66 10.66 0 0 0 437.333 320a10.66 10.66 0 0 0-10.667 10.667c0 5.885-4.792 10.667-10.667 10.667s-10.667-4.781-10.667-10.667v-6.25c0-6.875 2.688-13.344 7.542-18.208 8.896-8.896 13.792-20.719 13.792-33.292 0-.751-.28-1.411-.427-2.119l30.302-40.402a10.671 10.671 0 0 0-8.542-17.063v-42.667h53.333a10.66 10.66 0 0 0 10.667-10.667v-42.667c.001-4.796-3.215-8.697-7.568-10.04zm-397.764-.625H41.083L106.667 54.2v52.467zM128 117.333v-68.79l74.292 33.676L128 132.73v-15.397zm0 52.098 74.292 33.673L128 253.625v-84.194zm0 120.896L202.292 324 128 374.512v-84.185zM213.333 384h-61.339l61.339-41.708V384zm0-78.411-74.283-33.673 74.283-50.518v84.191zm0-188.256v67.36l-74.281-33.673 74.281-50.509v16.822zm0-53.526-46.635-21.141h46.635v21.141zm213.334 149.526h-21.333v-42.667h21.333v42.667zm-192-106.666V46.448l195.711 60.219H234.667z" fill="#1e40b0" opacity="1" data-original="#000000"></path></g></svg>