<svg xmlns="http://www.w3.org/2000/svg" version="1.1" xmlns:xlink="http://www.w3.org/1999/xlink" width="512" height="512" x="0" y="0" viewBox="0 0 512 511.998" style="enable-background:new 0 0 512 512" xml:space="preserve"><g><path d="M468.602 169.95c-1.422.521-34.942 13.038-26.598 36.222.095.237.19.521.237.758.616 2.939 3.366 17.874-2.228 26.171-3.319 4.836-4.741 9.245-4.315 13.465 1.612 16.878-.664 26.551-7.064 30.485-10.241 6.164-24.796-10.051-35.227-24.796-.569-.758-.901-1.659-1.043-2.608-1.991-13.844-6.116-28.02-8.819-30.296-3.793-2.56-21.809-1.991-23.042-2.228-12.469-2.655-15.788 1.991-13.18 11.853 4.789 8.297 14.602 26.93 11.284 36.222-3.319 9.198-21.951 17.495-31.861 21.335-2.513 4.741-8.534 15.93-11.758 20.197-21.762 28.684-66.85 56.04-84.013 100.892-4.504 11.758-1.375 40.394-8.724 54.001-3.414 6.211-16.404 14.555-21.951 17.969-3.082 4.836-13.417 19.391-26.313 19.391-.284 0-.569 0-.853-.047-8.25-.427-15.124-6.496-20.387-18.064-.095-.19-.142-.379-.237-.569-9.862-28.921-14.034-41.532-18.87-59.264-8.913-32.619-10.478-35.132-16.31-45.23-7.159-12.469-16.926-29.443-12.09-50.73 0-37.834.569-39.92-.569-43.855-1.565 1.043-4.647 3.698-9.72 10.715-1.754 2.371-4.978 3.129-7.586 1.707l-35.416-18.917c-2.797-1.47-3.935-4.883-2.56-7.776 1.897-4.03 3.603-8.913 3.793-10.762-1.138-1.517-6.543-5.594-11.616-8.534-3.603-2.181-3.935-7.302-.616-9.814l19.628-15.077c1.328-1.043 3.034-1.423 4.694-1.138l12.374 2.228c-2.608-9.245-6.827-21.572-11.758-26.645-14.697-15.267-10.241-36.222 15.172-34.563 13.37.854 24.133-3.887 28.874-8.961 4.694-5.073.474-5.073 3.413-9.198l27.925-39.446-15.077-18.633a5.894 5.894 0 0 1-1.328-3.698V49.62c-4.314-4.978-13.37-17.021-8.676-26.882 3.65-7.728 13.749-10.81 30.865-9.388.948.095 1.849.379 2.655.901l39.493 24.796c9.34-4.836 25.982-11.616 33.947-3.698 6.069 6.116 4.457 16.736-5.168 34.326l3.793 20.34a5.824 5.824 0 0 1-1.612 5.263l-12.374 12.374 28.873 21.857c2.323 1.707 3.034 4.884 1.707 7.444l-8.487 16.499 26.977 19.391 32.145.664a5.44 5.44 0 0 1 2.655.711l24.085 12.659 11.379-2.181v-16.831c0-3.034 2.276-5.595 5.31-5.879l21.051-2.134c2.845-.237 5.547 1.565 6.306 4.362l3.603 13.18 22.947-1.707v-16.215c0-1.802.806-3.461 2.181-4.599l26.645-21.762a6.07 6.07 0 0 1 4.314-1.28c7.017.711 42.291 4.931 51.536 20.15 3.512 5.784 3.322 15.835-2.415 17.969z" fill="#ffffff" opacity="1" data-original="#000000"></path></g></svg>