<svg xmlns="http://www.w3.org/2000/svg" version="1.1" xmlns:xlink="http://www.w3.org/1999/xlink" width="512" height="512" x="0" y="0" viewBox="0 0 66 66" style="enable-background:new 0 0 512 512" xml:space="preserve"><g><path d="M18.53 23.17c4.1 2.4 8.73 3.75 13.47 3.91v-15.3H18.53zM47.47 11.78H34v15.31c4.75-.17 9.37-1.51 13.47-3.91z" fill="#1e40b0" opacity="1" data-original="#000000"></path><path d="m48.47 48.78 4.46-4.46V10.78c0-2.47-2-4.46-4.46-4.46H17.53c-2.47 0-4.46 2-4.46 4.46v33.54l4.46 4.46zm-24.49-6.43a4.22 4.22 0 1 1 4.22-4.22 4.208 4.208 0 0 1-4.22 4.22zm18.04 0a4.22 4.22 0 1 1 .002-8.442 4.22 4.22 0 0 1-.002 8.442zM16.53 23.74V10.78c0-.55.45-1 1-1h30.94c.55 0 1 .45 1 1v12.96c0 .35-.18.67-.48.85a30.632 30.632 0 0 1-32 0c-.28-.18-.46-.5-.46-.85zM43.42 3.96c0-1.36-1.11-2.46-2.47-2.46h-15.9c-1.36 0-2.47 1.1-2.47 2.46v.35h20.85v-.35zM17.84 50.78 9.11 64.5h7.06l6.15-13.72zM48.15 50.78h-4.47l6.15 13.72h7.06zM21.16 58.26l-2.01 4.5h27.7l-2.01-4.5zM22.54 55.2h20.92l-1.43-3.23H23.97z" fill="#1e40b0" opacity="1" data-original="#000000"></path></g></svg>