<svg xmlns="http://www.w3.org/2000/svg" version="1.1" xmlns:xlink="http://www.w3.org/1999/xlink" width="512" height="512" x="0" y="0" viewBox="0 0 512 512" style="enable-background:new 0 0 512 512" xml:space="preserve"><g><g fill-rule="evenodd" clip-rule="evenodd"><path d="M353.882 365.176c0-29.109 23.597-52.706 52.706-52.706s52.706 23.597 52.706 52.706-23.597 52.706-52.706 52.706c-29.108 0-52.706-23.597-52.706-52.706zm75.294 0c0-12.475-10.113-22.588-22.588-22.588S384 352.701 384 365.176s10.113 22.588 22.588 22.588c12.475.001 22.588-10.112 22.588-22.588zm-195.764 0c0-29.109 23.597-52.706 52.706-52.706s52.706 23.597 52.706 52.706-23.597 52.706-52.706 52.706-52.706-23.597-52.706-52.706zm75.294 0c0-12.475-10.113-22.588-22.588-22.588s-22.588 10.113-22.588 22.588 10.113 22.588 22.588 22.588 22.588-10.112 22.588-22.588z" fill="#1e40b0" opacity="1" data-original="#000000"></path><path d="M242.151 297.412h208.404l22.028 38.55c2.048 3.584 6.708 4.88 10.352 2.798l12.952-7.401c3.7-2.114 4.918-6.712 2.845-10.339l-13.49-23.607h11.698c8.317 0 15.059-6.742 15.059-15.059V109.176c0-8.317-6.742-15.059-15.059-15.059H15.059C6.742 94.117 0 100.859 0 109.176v173.176c0 8.317 6.742 15.059 15.059 15.059h15.059v22.658c0 4.064 3.403 7.46 7.6 7.46h14.917c4.262 0 7.6-3.34 7.6-7.46v-22.658h147.227l-13.49 23.607c-2.048 3.584-.799 8.257 2.845 10.339l12.952 7.401c3.7 2.114 8.279.83 10.352-2.798z" fill="#1e40b0" opacity="1" data-original="#000000"></path></g></g></svg>