<svg xmlns="http://www.w3.org/2000/svg" version="1.1" xmlns:xlink="http://www.w3.org/1999/xlink" width="512" height="512" x="0" y="0" viewBox="0 0 88 88" style="enable-background:new 0 0 512 512" xml:space="preserve"><g><g data-name="Truck Delivery"><circle cx="73" cy="67" r="1" fill="#1e40b0" opacity="1" data-original="#000000"></circle><path d="M73 60a7 7 0 1 0 7 7 7.008 7.008 0 0 0-7-7zm0 10a3 3 0 1 1 3-3 3.003 3.003 0 0 1-3 3z" fill="#1e40b0" opacity="1" data-original="#000000"></path><circle cx="32" cy="67" r="1" fill="#1e40b0" opacity="1" data-original="#000000"></circle><path d="M32 60a7 7 0 1 0 7 7 7.008 7.008 0 0 0-7-7zm0 10a3 3 0 1 1 3-3 3.003 3.003 0 0 1-3 3z" fill="#1e40b0" opacity="1" data-original="#000000"></path><path d="M59 26a1.003 1.003 0 0 0-1-1h-5.04c.03.33.04.66.04 1a14 14 0 0 1-28 0c0-.34.01-.67.04-1H20a1.003 1.003 0 0 0-1 1v36h5.53a8.975 8.975 0 0 1 14.94 0H59zM15 65v3a1.003 1.003 0 0 0 1 1h7.22a9.356 9.356 0 0 1-.22-2 8.99 8.99 0 0 1 .51-3H16a1 1 0 0 0-1 1zM41 67a9.356 9.356 0 0 1-.22 2h23.44a9.356 9.356 0 0 1-.22-2 8.99 8.99 0 0 1 .51-3H40.49a8.99 8.99 0 0 1 .51 3zM87 64h-5.51a8.99 8.99 0 0 1 .51 3 9.356 9.356 0 0 1-.22 2H87a1.003 1.003 0 0 0 1-1v-3a1 1 0 0 0-1-1zM17 39a1 1 0 0 0-1-1H1a1 1 0 0 0 0 2h15a1 1 0 0 0 1-1zM17 45a1 1 0 0 0-1-1H5a1 1 0 0 0 0 2h11a1 1 0 0 0 1-1zM17 51a1 1 0 0 0-1-1h-6a1 1 0 0 0 0 2h6a1 1 0 0 0 1-1z" fill="#1e40b0" opacity="1" data-original="#000000"></path><path d="M39 38a12 12 0 1 0-12-12 12.013 12.013 0 0 0 12 12zm-1-16a1 1 0 0 1 2 0v3.586l2.707 2.707a1 1 0 1 1-1.414 1.414l-3-3A1 1 0 0 1 38 26zM67 38v7h9.92l-5.382-7z" fill="#1e40b0" opacity="1" data-original="#000000"></path><path d="M85 46a.981.981 0 0 0-.21-.61l-10-13A.985.985 0 0 0 74 32H62a1.003 1.003 0 0 0-1 1v29h4.53a8.975 8.975 0 0 1 14.94 0H85zm-17 5h-2a1 1 0 0 1 0-2h2a1 1 0 0 1 0 2zm11.848-4.559a1.002 1.002 0 0 1-.898.559H66a1 1 0 0 1-1-1v-9a1 1 0 0 1 1-1h6.03a1 1 0 0 1 .793.39l6.92 9a1 1 0 0 1 .105 1.051z" fill="#1e40b0" opacity="1" data-original="#000000"></path></g></g></svg>