<svg xmlns="http://www.w3.org/2000/svg" version="1.1" xmlns:xlink="http://www.w3.org/1999/xlink" width="512" height="512" x="0" y="0" viewBox="0 0 512 512" style="enable-background:new 0 0 512 512" xml:space="preserve"><g><path d="M336.74 215.84v33.02h31.49L314.8 302.3l-53.43-53.43h31.52v-33.02c7.09 1.33 14.43 2.07 21.91 2.07 7.51-.01 14.83-.74 21.94-2.08zm26.31 125.44L401 320.64c-8.42-9.44-22.59-12.27-34.13-5.98l-22.34 12.16c7.46 3.12 13.84 8.16 18.52 14.46zm75.82-22.48-68.57 37.3a44.271 44.271 0 0 1-.54 25.29c-7.48 23.24-32.57 36.08-55.81 28.6l-62.19-20.04c-3.77-1.22-5.87-5.27-4.65-9.07l.62-1.96c1.22-3.77 5.3-5.87 9.07-4.65l62.2 20.04c14.6 4.68 30.36-3.4 35.06-18a27.19 27.19 0 0 0 1.11-11.99c-1.33-10.38-8.48-19.64-19.08-23.05-31.95-10.29-63.89-20.58-95.84-30.87-25.57-8.25-50.63-5.9-74.21 6.94l-60.26 32.8 59.07 102.56c15.93-7.51 32.71-8.53 49.8-3.03l35.04 11.28c18.51 5.95 36.65 4.28 53.74-5.05l162.06-88.19c13.46-7.31 18.48-24.32 11.17-37.79-7.34-13.45-24.32-18.46-37.79-11.12zm-358.8 19.7c-1.98-3.46-6.46-4.65-9.92-2.66l-36.17 20.83c-3.49 1.98-4.68 6.46-2.69 9.92l81.38 141.28c1.98 3.46 6.46 4.68 9.92 2.66l36.17-20.83c3.46-1.98 4.68-6.46 2.66-9.92zm134.27-237.55C214.34 45.48 259.33.49 314.8.49c31.41 0 59.41 14.4 77.84 36.96-22.71 12.08-38.18 35.97-38.18 63.5s15.48 51.45 38.18 63.5c-18.43 22.56-46.43 36.96-77.84 36.96-55.47 0-100.46-44.98-100.46-100.46zm68.32-23.47c0 8.73 3.57 16.67 9.33 22.39 4.88 4.9 11.37 8.22 18.6 9.1.62.14 1.28.23 1.93.23h2.72c4.2 0 7.99 1.73 10.77 4.48 2.75 2.78 4.48 6.58 4.48 10.77 0 4.17-1.73 7.99-4.48 10.74-2.78 2.78-6.58 4.51-10.77 4.51h-5.44c-2.47 0-4.79-.6-6.83-1.62a15.676 15.676 0 0 1-5.44-4.62 8.26 8.26 0 0 0-11.51-1.7c-3.63 2.69-4.39 7.85-1.7 11.48 2.95 4 6.8 7.26 11.25 9.52 3.37 1.7 7.12 2.83 11.03 3.23v12.95c0 4.54 3.69 8.25 8.22 8.25 4.56 0 8.25-3.71 8.25-8.25v-13.75a32.029 32.029 0 0 0 14.6-8.33c5.75-5.75 9.3-13.69 9.3-22.42s-3.54-16.67-9.3-22.42c-4.9-4.9-11.4-8.22-18.6-9.07-.62-.17-1.28-.23-1.96-.23h-2.72c-4.17 0-7.99-1.73-10.74-4.51a15.1 15.1 0 0 1-4.48-10.74c0-4.2 1.7-7.99 4.48-10.77 2.75-2.75 6.58-4.48 10.74-4.48h5.44c2.49 0 4.82.57 6.86 1.62 2.15 1.08 4 2.66 5.44 4.59 2.69 3.66 7.85 4.42 11.48 1.73a8.238 8.238 0 0 0 1.73-11.51c-2.95-3.97-6.8-7.26-11.25-9.5-3.4-1.73-7.11-2.83-11.03-3.26V32.98c0-4.56-3.69-8.25-8.25-8.25-4.54 0-8.22 3.69-8.22 8.25v13.75c-5.61 1.42-10.63 4.37-14.6 8.33-5.76 5.76-9.33 13.69-9.33 22.42zm143.66-31.89c30.5 0 55.36 24.86 55.36 55.36s-24.86 55.39-55.36 55.39-55.39-24.89-55.39-55.39 24.89-55.36 55.39-55.36zm-30.76 58.88 18.17 18.17c3.2 3.2 8.42 3.2 11.65 0l31.66-31.69c3.23-3.2 3.23-8.42 0-11.65-3.2-3.23-8.42-3.23-11.65 0l-25.85 25.85-12.33-12.33c-3.2-3.23-8.42-3.23-11.65 0-3.2 3.2-3.2 8.42 0 11.65z" fill="#1e40b0" opacity="1" data-original="#000000"></path></g></svg>