<svg xmlns="http://www.w3.org/2000/svg" version="1.1" xmlns:xlink="http://www.w3.org/1999/xlink" width="512" height="512" x="0" y="0" viewBox="0 0 508.008 508.008" style="enable-background:new 0 0 512 512" xml:space="preserve"><g><path d="M120.057 194.472v133.947h178.596V194.472h-74.415v59.532h-29.766v-59.532zM432.6 254.004h-29.766v-59.532h-74.415v133.947h179.589V194.472H432.6zM224.238 30.758v133.948h178.596V30.758h-74.415V90.29h-29.766V30.758z" fill="#1e40b0" opacity="1" data-original="#000000"></path><circle cx="134.94" cy="447.483" r="29.766" fill="#1e40b0" opacity="1" data-original="#000000"></circle><circle cx="432.6" cy="447.483" r="29.766" fill="#1e40b0" opacity="1" data-original="#000000"></circle><path d="M90.29 134.94c0-24.621-20.029-44.649-44.649-44.649H0v29.766h45.641c8.211 0 14.883 6.672 14.883 14.883v282.778h23.162c10.325-17.708 29.312-29.766 51.253-29.766s40.928 12.058 51.253 29.766h195.154c10.325-17.708 29.312-29.766 51.253-29.766 21.942 0 40.928 12.058 51.253 29.766h24.154v-59.532H90.29z" fill="#1e40b0" opacity="1" data-original="#000000"></path></g></svg>